<?xml version="1.0" encoding="UTF-8"?>
<svg version="1.1" xmlns="http://www.w3.org/2000/svg" width="240" height="240">
<path d="M0 0 C79.2 0 158.4 0 240 0 C240 79.2 240 158.4 240 240 C160.8 240 81.6 240 0 240 C0 160.8 0 81.6 0 0 Z " fill="#E8F0F1" transform="translate(0,0)"/>
<path d="M0 0 C0.99 0.495 0.99 0.495 2 1 C1.39914547 4.00427266 0.79829044 7.00854521 0.19743347 10.01281738 C-0.34846508 12.74230751 -0.89435178 15.47180001 -1.44023132 18.20129395 C-2.83164977 25.15857908 -4.22314293 32.11584924 -5.61493301 39.07306004 C-6.42692707 43.13203109 -7.23886758 47.19101286 -8.05078125 51.25 C-8.29716339 52.48172849 -8.29716339 52.48172849 -8.54852295 53.73834038 C-10.73983243 64.69375832 -12.92872636 75.64965542 -15.11510658 86.60605812 C-16.23180488 92.2016364 -17.34911236 97.79709305 -18.46660233 103.39251328 C-18.73897997 104.7564012 -19.01132644 106.12029535 -19.28364182 107.48419571 C-23.03632705 126.27904746 -26.81954554 145.06707 -30.72998047 163.82983398 C-30.87984406 164.55258011 -31.02970764 165.27532623 -31.18411255 166.01997375 C-31.5738923 167.89923801 -31.96602756 169.77801331 -32.35839844 171.65673828 C-33.01800376 175.09381412 -33.53288318 178.53196128 -34 182 C-37.59602071 180.64927595 -40.83130017 179.04041166 -44.140625 177.09375 C-45.1205542 176.51963379 -46.1004834 175.94551758 -47.11010742 175.35400391 C-48.66435425 174.43627197 -48.66435425 174.43627197 -50.25 173.5 C-51.32032471 172.8714209 -52.39064941 172.2428418 -53.4934082 171.59521484 C-55.65547188 170.32501255 -57.81669622 169.05338043 -59.97705078 167.78027344 C-62.6159639 166.22616631 -65.25798138 164.67762139 -67.90234375 163.1328125 C-79.07553347 156.59670752 -79.07553347 156.59670752 -83.82421875 153.609375 C-84.42532471 153.23216309 -85.02643066 152.85495117 -85.64575195 152.46630859 C-87.25520106 151.45060374 -88.85833658 150.42491353 -90.4609375 149.3984375 C-92.95484883 147.75878201 -92.95484883 147.75878201 -96 148 C-97.45181128 149.40801919 -97.45181128 149.40801919 -98.7421875 151.32421875 C-99.25136719 152.02353516 -99.76054688 152.72285156 -100.28515625 153.44335938 C-100.80980469 154.18392578 -101.33445312 154.92449219 -101.875 155.6875 C-105.31825081 160.49173647 -108.67527667 164.95454847 -113 169 C-115.44464828 163.30565548 -117.49257166 157.56612202 -119.296875 151.63671875 C-119.70266918 150.32472872 -120.1089253 149.01288149 -120.515625 147.70117188 C-121.13988934 145.68634395 -121.75487211 143.67074212 -122.34375 141.64526367 C-124.63069614 132.64566326 -124.63069614 132.64566326 -130.5703125 125.9921875 C-132.03285369 125.29778913 -133.51132069 124.63643518 -135 124 C-136.90472502 122.96855861 -138.80265788 121.92452019 -140.6953125 120.87109375 C-142.83721447 119.72408067 -144.98050642 118.57966037 -147.125 117.4375 C-149.43123992 116.20229019 -151.73722481 114.96660414 -154.04296875 113.73046875 C-155.77812744 112.80113525 -155.77812744 112.80113525 -157.54833984 111.85302734 C-162.85498568 109.00414901 -168.14829423 106.13110124 -173.4375 103.25 C-174.35998535 102.74911865 -175.2824707 102.2482373 -176.23291016 101.73217773 C-177.08288574 101.26884033 -177.93286133 100.80550293 -178.80859375 100.328125 C-179.91932251 99.72339355 -179.91932251 99.72339355 -181.05249023 99.10644531 C-182.74561969 98.14452194 -184.37974704 97.08016864 -186 96 C-186 95.34 -186 94.68 -186 94 C-184.87694458 93.4423999 -184.87694458 93.4423999 -183.73120117 92.87353516 C-180.84685255 91.44008523 -177.96353348 90.00458721 -175.08081055 88.56787109 C-173.26229639 87.6622487 -171.44269446 86.75881161 -169.62304688 85.85546875 C-163.6930489 82.90269335 -157.79365908 79.90451107 -151.94587708 76.79171753 C-142.20778367 71.61065902 -132.36937891 66.64343212 -122.5 61.71875 C-121.75687876 61.34790661 -121.01375751 60.97706322 -120.24811745 60.59498215 C-114.04931865 57.50262529 -107.84792668 54.41548114 -101.64648438 51.32843018 C-96.26315648 48.64837305 -90.88073358 45.96651233 -85.5 43.28125 C-84.7567642 42.91034052 -84.0135284 42.53943104 -83.24777031 42.15728188 C-74.37867015 37.72789216 -65.54568154 33.24632506 -56.79432678 28.58744812 C-47.04704242 23.40667157 -37.17989706 18.46003304 -27.31420898 13.50952148 C-25.03086625 12.36198947 -22.74933472 11.21084756 -20.46948242 10.05639648 C-17.13841105 8.3697512 -13.80232921 6.6934411 -10.46484375 5.01953125 C-9.44108139 4.49889603 -8.41731903 3.9782608 -7.36253357 3.44184875 C-6.42297318 2.97353134 -5.48341278 2.50521393 -4.51538086 2.02270508 C-3.68888535 1.6065242 -2.86238983 1.19034332 -2.010849 0.7615509 C-1.34726883 0.51023911 -0.68368866 0.25892731 0 0 Z " fill="#0285FD" transform="translate(205,31)"/>
<path d="M0 0 C56.1 0 112.2 0 170 0 C170 56.1 170 112.2 170 170 C149.87 170 129.74 170 109 170 C111.29341976 153.94606171 111.29341976 153.94606171 112.734375 147.41015625 C112.89257217 146.67204712 113.05076935 145.93393799 113.21376038 145.17346191 C113.54902714 143.60995385 113.88621005 142.04685552 114.22525024 140.48416138 C115.1399726 136.26282011 116.03678435 132.03767728 116.93359375 127.8125 C117.11359421 126.96522842 117.29359467 126.11795685 117.47904968 125.24501038 C119.0054362 118.03287017 120.43317266 110.80422152 121.8125 103.5625 C124.73827961 88.21011328 127.80467297 72.88656139 130.875 57.5625 C131.12819 56.29850372 131.38138 55.03450745 131.64224243 53.73220825 C133.09353615 46.48787943 134.54605343 39.24379685 136 32 C123.47205355 37.87113262 111.03488387 43.90262607 98.66601562 50.10180664 C96.00278909 51.43610264 93.33744501 52.76609607 90.671875 54.09570312 C81.35724796 58.75132959 72.09879265 63.49733557 62.89564514 68.36958313 C55.64500809 72.20310859 48.34049393 75.92284163 41.00463867 79.59033203 C38.87524447 80.65616085 36.7491724 81.72844934 34.62304688 82.80078125 C33.25800658 83.48476247 31.89278001 84.16837208 30.52734375 84.8515625 C29.58229225 85.32947739 29.58229225 85.32947739 28.6181488 85.81704712 C24.22892758 88 24.22892758 88 22 88 C22 59.29 22 30.58 22 1 C14.74 1 7.48 1 0 1 C0 0.67 0 0.34 0 0 Z " fill="#EBF1F2" transform="translate(70,0)"/>
<path d="M0 0 C8.74690619 -0.02345514 17.4938011 -0.04108036 26.24073219 -0.05181217 C30.30486814 -0.05697001 34.36898214 -0.0639337 38.43310547 -0.07543945 C42.37539247 -0.0865269 46.31765875 -0.09232981 50.25996017 -0.09487724 C51.74338481 -0.09668605 53.22680867 -0.10021374 54.71022415 -0.10573006 C67.18533008 -0.15015738 79.50973877 0.43226085 92 1 C92 30.04 92 59.08 92 89 C80.12 94.94 68.24 100.88 56 107 C48.50091102 110.92071555 48.50091102 110.92071555 41.01953125 114.875 C36.68502998 117.177071 32.31931507 119.41446947 27.9375 121.625 C27.26299805 121.96869629 26.58849609 122.31239258 25.89355469 122.66650391 C21.23631079 125 21.23631079 125 19 125 C21.67448384 128.1419455 25.07372029 129.79497868 28.6796875 131.65234375 C29.65435471 132.16445152 29.65435471 132.16445152 30.64871216 132.68690491 C32.72142097 133.7757306 34.79771345 134.85743622 36.875 135.9375 C39.60483708 137.35712979 42.3307879 138.78386094 45.0546875 140.21484375 C45.67568329 140.53476791 46.29667908 140.85469208 46.93649292 141.18431091 C50.74627746 143.18639521 53.56397713 145.25118171 57 148 C38.52 148 20.04 148 1 148 C0.82668251 136.83340149 0.65762155 125.66682084 0.5 114.5 C0.48812275 113.65896225 0.4762455 112.8179245 0.46400833 111.95140076 C0.08719369 85.05022007 -0.0916482 58.15378865 -0.0625 31.25 C-0.06164398 30.45409454 -0.06078796 29.65818909 -0.05990601 28.83816528 C-0.04877575 19.22541792 -0.02911142 9.61271045 0 0 Z " fill="#C2F79C" transform="translate(0,0)"/>
<path d="M0 0 C0.99 0.495 0.99 0.495 2 1 C1.39914547 4.00427266 0.79829044 7.00854521 0.19743347 10.01281738 C-0.34846508 12.74230751 -0.89435178 15.47180001 -1.44023132 18.20129395 C-2.83164977 25.15857908 -4.22314293 32.11584924 -5.61493301 39.07306004 C-6.42692707 43.13203109 -7.23886758 47.19101286 -8.05078125 51.25 C-8.21503601 52.07115232 -8.37929077 52.89230465 -8.54852295 53.73834038 C-10.73983243 64.69375832 -12.92872636 75.64965542 -15.11510658 86.60605812 C-16.23180488 92.2016364 -17.34911236 97.79709305 -18.46660233 103.39251328 C-18.73897997 104.7564012 -19.01132644 106.12029535 -19.28364182 107.48419571 C-23.03632705 126.27904746 -26.81954554 145.06707 -30.72998047 163.82983398 C-30.87984406 164.55258011 -31.02970764 165.27532623 -31.18411255 166.01997375 C-31.5738923 167.89923801 -31.96602756 169.77801331 -32.35839844 171.65673828 C-33.01800376 175.09381412 -33.53288318 178.53196128 -34 182 C-37.59602071 180.64927595 -40.83130017 179.04041166 -44.140625 177.09375 C-45.12023193 176.51979492 -46.09983887 175.94583984 -47.10913086 175.35449219 C-48.14561768 174.74250977 -49.18210449 174.13052734 -50.25 173.5 C-51.3232251 172.8699707 -52.3964502 172.23994141 -53.50219727 171.59082031 C-56.66998331 169.73034072 -59.83515841 167.86548258 -63 166 C-64.58703421 165.06735877 -66.1742504 164.13502708 -67.76171875 163.203125 C-70.49776098 161.59656107 -73.2320089 159.98701315 -75.96484375 158.375 C-78.80631136 156.69985329 -81.65347776 155.03485132 -84.50390625 153.375 C-105.40710908 141.18578184 -105.40710908 141.18578184 -107 138 C-97.30616764 124.92101983 -87.2540945 112.11883691 -77.18408203 99.32861328 C-73.4376096 94.56670351 -69.71713154 89.78483428 -66 85 C-59.57156415 76.72603434 -53.10730442 68.48095575 -46.62207031 60.25146484 C-45.22665304 58.48058365 -43.83186225 56.709212 -42.4375 54.9375 C-41.97947998 54.35564941 -41.52145996 53.77379883 -41.04956055 53.17431641 C-38.04323599 49.34789087 -35.07740447 45.49317451 -32.125 41.625 C-28.29509148 36.61576696 -24.35779553 31.70089238 -20.375 26.8125 C-19.82312012 26.13501709 -19.27124023 25.45753418 -18.70263672 24.75952148 C-16.69103821 22.29271081 -14.67847766 19.82672479 -12.65917969 17.36621094 C-11.51915975 15.976274 -10.3843543 14.58206461 -9.25 13.1875 C-8.63640625 12.43855469 -8.0228125 11.68960938 -7.390625 10.91796875 C-5.81548708 8.94788932 -5.81548708 8.94788932 -5 6 C-5.99 5.01 -5.99 5.01 -7 4 C-1.7265625 0.77734375 -1.7265625 0.77734375 0 0 Z " fill="#0184FD" transform="translate(205,31)"/>
<path d="M0 0 C1.62215675 0.00333092 1.62215675 0.00333092 3.27708435 0.00672913 C4.5154303 0.00684998 5.75377625 0.00697083 7.02964783 0.00709534 C8.99762329 0.01476929 8.99762329 0.01476929 11.00535583 0.02259827 C12.20349915 0.02360535 13.40164246 0.02461243 14.63609314 0.02565002 C19.13288829 0.03090147 23.62966985 0.04486257 28.12644958 0.05775452 C38.17082458 0.07837952 48.21519958 0.09900452 58.56394958 0.12025452 C58.56394958 23.22025452 58.56394958 46.32025452 58.56394958 70.12025452 C18.30394958 70.12025452 -21.95605042 70.12025452 -63.43605042 70.12025452 C-63.43605042 50.98025452 -63.43605042 31.84025452 -63.43605042 12.12025452 C-47.66857538 21.13024025 -47.66857538 21.13024025 -42.07667542 24.40931702 C-41.47651611 24.76110016 -40.87635681 25.1128833 -40.25801086 25.47532654 C-39.01814846 26.20230058 -37.77850092 26.92964122 -36.53907776 27.65736389 C-34.6732808 28.75275141 -32.80666921 29.84674068 -30.93995667 30.94056702 C-24.08203764 34.96191843 -17.24221829 39.01172527 -10.43605042 43.12025452 C-10.48503479 42.1959967 -10.53401917 41.27173889 -10.58448792 40.31947327 C-10.58183732 35.04346178 -9.25091055 30.04582481 -8.06105042 24.93275452 C-6.41376202 17.65127901 -4.86049865 10.42592527 -3.79542542 3.03431702 C-3.25663288 0.1646611 -2.96642352 0.14643614 0 0 Z " fill="#7FE3FD" transform="translate(181.43605041503906,169.87974548339844)"/>
<path d="M0 0 C0 4.14705978 -2.24752656 5.92998211 -4.875 8.875 C-8.72226181 13.29947535 -12.4535452 17.76786986 -16 22.4375 C-16.40597412 22.97109131 -16.81194824 23.50468262 -17.23022461 24.05444336 C-18.06134007 25.14686452 -18.89231242 26.23939457 -19.72314453 27.33203125 C-21.93486639 30.22122508 -24.18612756 33.07916327 -26.4375 35.9375 C-26.89511719 36.51878662 -27.35273438 37.10007324 -27.82421875 37.69897461 C-28.75225243 38.87742749 -29.6804755 40.05573125 -30.60888672 41.23388672 C-32.90874232 44.15371042 -35.20419526 47.07699088 -37.5 50 C-40.21336594 53.45429037 -42.92725356 56.90816051 -45.64453125 60.359375 C-51.38889149 67.65809154 -57.10143723 74.98091126 -62.79907227 82.31616211 C-66.43410559 86.99376709 -70.08425324 91.65893787 -73.75 96.3125 C-83.00834879 108.07758566 -92.03972321 120.00677728 -101 132 C-97.53064917 135.61119823 -94.60255447 137.96631314 -90 140 C-95.08949997 148.11743033 -101.02654018 155.52786075 -107 163 C-109.87457991 161.56271004 -110.05246373 159.43529564 -111.03053284 156.52618408 C-111.27955856 155.75957458 -111.52858429 154.99296509 -111.78515625 154.203125 C-112.04630722 153.4173407 -112.30745819 152.6315564 -112.57652283 151.82196045 C-113.1288377 150.15525654 -113.67752852 148.48734804 -114.22290039 146.81835938 C-115.05530209 144.2720186 -115.89868756 141.72953339 -116.74414062 139.1875 C-117.27930028 137.56792444 -117.81382596 135.94813922 -118.34765625 134.328125 C-118.59870621 133.56961243 -118.84975616 132.81109985 -119.1084137 132.02960205 C-121.65028216 124.23012114 -121.65028216 124.23012114 -122 121 C-120.3046875 118.9375 -120.3046875 118.9375 -117.875 117 C-114.37398608 114.15327393 -111.17550527 111.20783177 -108 108 C-72 72 -36 36 0 0 Z " fill="#0154EF" transform="translate(200,37)"/>
<path d="M0 0 C16.17 0 32.34 0 49 0 C48.67 24.42 48.34 48.84 48 74 C47.01 74 46.02 74 45 74 C44.92579834 74.60682617 44.85159668 75.21365234 44.77514648 75.83886719 C43.71253619 78.80145817 42.39472766 79.2204034 39.59765625 80.578125 C38.70755859 81.01640625 37.81746094 81.4546875 36.90039062 81.90625 C35.49563477 82.57140625 35.49563477 82.57140625 34.0625 83.25 C33.12986328 83.70890625 32.19722656 84.1678125 31.23632812 84.640625 C24.3226144 88 24.3226144 88 22 88 C22 59.29 22 30.58 22 1 C14.74 1 7.48 1 0 1 C0 0.67 0 0.34 0 0 Z " fill="#FEFEFE" transform="translate(70,0)"/>
<path d="M0 0 C0.33 0 0.66 0 1 0 C1 25.08 1 50.16 1 76 C19.81785813 75.84186143 19.81785813 75.84186143 38.63525391 75.63964844 C40.99901609 75.62796306 43.36278634 75.61777088 45.7265625 75.609375 C47.55900513 75.5786792 47.55900513 75.5786792 49.4284668 75.54736328 C60.44928121 75.54283635 60.44928121 75.54283635 65 80 C66.375 83.75 66.375 83.75 67 87 C67.33 86.67 67.66 86.34 68 86 C69.67542976 86.28604898 71.34385343 86.61781233 73 87 C72.979375 87.94875 72.95875 88.8975 72.9375 89.875 C72.77448174 92.90666283 72.77448174 92.90666283 74 95 C74.99 94.01 75.98 93.02 77 92 C77.33 93.65 77.66 95.3 78 97 C62.68866511 98.26230635 47.36970409 98.1190573 32.01898193 98.06866455 C28.51200981 98.05827825 25.00503008 98.05383475 21.49804688 98.04882812 C14.66534455 98.03822947 7.83267913 98.02070026 1 98 C1 102.62 1 107.24 1 112 C0.67 112 0.34 112 0 112 C0 75.04 0 38.08 0 0 Z " fill="#F4FBFB" transform="translate(0,72)"/>
<path d="M0 0 C3.52095498 0.6520287 6.13990962 1.83355359 9 4 C9.60127258 6.56266785 9.60127258 6.56266785 9.56762695 9.66479492 C9.5672493 10.82577194 9.56687164 11.98674896 9.56648254 13.1829071 C9.54067612 14.43610245 9.51486969 15.68929779 9.48828125 16.98046875 C9.48120651 18.26359451 9.47413177 19.54672028 9.46684265 20.86872864 C9.44776759 24.27717922 9.39866571 27.6845614 9.34332275 31.09259033 C9.29213929 34.57134282 9.26905668 38.05027341 9.24414062 41.52929688 C9.19319623 48.35380761 9.09534543 55.17538612 9 62 C0.42 62 -8.16 62 -17 62 C-17.06902853 56.69758639 -17.12871364 51.3967439 -17.16479492 46.09423828 C-17.1798424 44.29210108 -17.2002853 42.49000027 -17.22631836 40.68798828 C-17.26288021 38.09137979 -17.27976681 35.49525725 -17.29296875 32.8984375 C-17.30845261 32.0982016 -17.32393646 31.2979657 -17.33988953 30.47348022 C-17.3418632 23.85079711 -15.37059466 19.37799822 -11.15234375 14.23828125 C-10.62962891 13.59439453 -10.10691406 12.95050781 -9.56835938 12.28710938 C-8.76108398 11.30967773 -8.76108398 11.30967773 -7.9375 10.3125 C-6.86227498 8.99691553 -5.78801776 7.68053934 -4.71484375 6.36328125 C-4.24167725 5.78876221 -3.76851074 5.21424316 -3.28100586 4.62231445 C-2.11007782 3.13940672 -1.04808805 1.57213207 0 0 Z " fill="#F1F9FD" transform="translate(109,178)"/>
<path d="M0 0 C18.48 0 36.96 0 56 0 C56 7.26 56 14.52 56 22 C35.87 22 15.74 22 -5 22 C-2.6 5.2 -2.6 5.2 0 0 Z " fill="#FCFDFE" transform="translate(184,148)"/>
<path d="M0 0 C3.29680965 0.65784963 5.84117922 1.89420573 8.75 3.5625 C9.94882813 4.24505859 9.94882813 4.24505859 11.171875 4.94140625 C11.77515625 5.29074219 12.3784375 5.64007813 13 6 C7.91050003 14.11743033 1.97345982 21.52786075 -4 29 C-5.503808 25.992384 -4.44724321 23.92451017 -3.6875 20.6875 C-2.14055665 13.82559989 -0.98312013 6.96280371 0 0 Z " fill="#0B23BE" transform="translate(97,171)"/>
<path d="M0 0 C1.94572009 0.87783651 3.88135349 1.7780514 5.8125 2.6875 C7.43091797 3.43580078 7.43091797 3.43580078 9.08203125 4.19921875 C12.29472416 6.18188466 13.44661007 7.59933555 15 11 C15.6875 14.8125 15.6875 14.8125 16 18 C14.68 17.34 13.36 16.68 12 16 C12 15.01 12 14.02 12 13 C10.68 13.99 9.36 14.98 8 16 C7.67 13.36 7.34 10.72 7 8 C5.68 8 4.36 8 3 8 C1 7 1 7 -0.125 3.9375 C-0.41375 2.968125 -0.7025 1.99875 -1 1 C-0.67 0.67 -0.34 0.34 0 0 Z M8 11 C9 13 9 13 9 13 Z " fill="#DBEEFA" transform="translate(65,152)"/>
<path d="M0 0 C3.70488428 0.92622107 5.16604069 1.67210485 8 4 C4.535 5.485 4.535 5.485 1 7 C1 6.34 1 5.68 1 5 C0.34 5 -0.32 5 -1 5 C-1.20625 5.53625 -1.4125 6.0725 -1.625 6.625 C-3.57996944 10.0017654 -6.18223695 12.30474839 -9 15 C-9.66 14.67 -10.32 14.34 -11 14 C-7.37 9.38 -3.74 4.76 0 0 Z " fill="#D6EBF8" transform="translate(109,178)"/>
<path d="M0 0 C3.465 1.98 3.465 1.98 7 4 C7 4.66 7 5.32 7 6 C6.01 6.33 5.02 6.66 4 7 C3.67 7.99 3.34 8.98 3 10 C2.34 10 1.68 10 1 10 C1 14.95 1 19.9 1 25 C0.67 25 0.34 25 0 25 C0 16.75 0 8.5 0 0 Z " fill="#77DBFB" transform="translate(118,182)"/>
<path d="M0 0 C2.88372897 1.05758625 5.50713808 2.18939503 8 4 C9.125 7.625 9.125 7.625 9 11 C8.34 11.66 7.68 12.32 7 13 C7 11.35 7 9.7 7 8 C5.68 8 4.36 8 3 8 C1 7 1 7 -0.125 3.9375 C-0.41375 2.968125 -0.7025 1.99875 -1 1 C-0.67 0.67 -0.34 0.34 0 0 Z " fill="#E0F2FA" transform="translate(65,152)"/>
<path d="M0 0 C2.24226443 3.36339665 3.42592747 6.76340552 4.6875 10.5625 C4.92533203 11.24763672 5.16316406 11.93277344 5.40820312 12.63867188 C5.99980093 14.40652572 6.5063209 16.20234149 7 18 C6.67 18.66 6.34 19.32 6 20 C5.67 19.01 5.34 18.02 5 17 C4.01 17 3.02 17 2 17 C0.7017874 11.23918159 -0.25706972 5.91260345 0 0 Z " fill="#B6D3EF" transform="translate(82,172)"/>
<path d="M0 0 C1.5625 1.5625 1.5625 1.5625 3 4 C2.9375 7.625 2.9375 7.625 2 11 C-0.0625 12.4375 -0.0625 12.4375 -2 13 C-1.48041715 8.62065881 -0.94324258 4.31196609 0 0 Z " fill="#D7E7F5" transform="translate(187,127)"/>
<path d="M0 0 C0.33 0.99 0.66 1.98 1 3 C-2.3 6.63 -5.6 10.26 -9 14 C-9 9.82438593 -7.16647522 8.46042213 -4.5 5.3125 C-3.6646875 4.31863281 -2.829375 3.32476562 -1.96875 2.30078125 C-0.99421875 1.16189453 -0.99421875 1.16189453 0 0 Z " fill="#128AFA" transform="translate(140,115)"/>
<path d="M0 0 C2.44897847 3.67346771 2.31537716 5.66356399 2 10 C1.34 10.66 0.68 11.32 0 12 C-1.1898306 9.6203388 -1.13349966 8.08514265 -1.125 5.4375 C-1.12886719 4.22900391 -1.12886719 4.22900391 -1.1328125 2.99609375 C-1 1 -1 1 0 0 Z " fill="#D3E7F2" transform="translate(82,180)"/>
<path d="M0 0 C3.64566574 2.43044383 3.9977335 3.82388959 5 8 C4.625 10.375 4.625 10.375 4 12 C3.01 11.34 2.02 10.68 1 10 C0.875 7.125 0.875 7.125 1 4 C0.56058477 1.73433657 0.56058477 1.73433657 0 0 Z " fill="#C9E2FA" transform="translate(76,158)"/>
<path d="M0 0 C2 3 2 3 2 5 C-1.96 6.98 -1.96 6.98 -6 9 C-4.25618453 5.51236907 -2.47193291 2.96631949 0 0 Z " fill="#1189F9" transform="translate(154,97)"/>
<path d="M0 0 C2.475 0.99 2.475 0.99 5 2 C3.68 3.65 2.36 5.3 1 7 C0.01 6.67 -0.98 6.34 -2 6 C-1.34 4.02 -0.68 2.04 0 0 Z " fill="#6FD9FA" transform="translate(146,199)"/>
<path d="M0 0 C0.66 0.33 1.32 0.66 2 1 C0.44499019 4.81684226 -2.03595495 7.19195732 -5 10 C-5.66 9.67 -6.32 9.34 -7 9 C-4.69 6.03 -2.38 3.06 0 0 Z " fill="#CDE1F2" transform="translate(105,183)"/>
<path d="M0 0 C4 0 4 0 6 1 C2.535 3.97 2.535 3.97 -1 7 C-1.04254356 5.00045254 -1.04080783 2.99958364 -1 1 C-0.67 0.67 -0.34 0.34 0 0 Z " fill="#158BFB" transform="translate(132,99)"/>
<path d="M0 0 C3.96 1.98 3.96 1.98 8 4 C8 4.33 8 4.66 8 5 C5.69 5 3.38 5 1 5 C0.34 3.68 -0.32 2.36 -1 1 C-0.67 0.67 -0.34 0.34 0 0 Z " fill="#B4F1A1" transform="translate(49,143)"/>
<path d="M0 0 C3.465 1.98 3.465 1.98 7 4 C7 4.66 7 5.32 7 6 C6.01 6.33 5.02 6.66 4 7 C0 2.25 0 2.25 0 0 Z " fill="#6CD5F9" transform="translate(118,182)"/>
<path d="M0 0 C0.66 0.33 1.32 0.66 2 1 C2 1.99 2 2.98 2 4 C0.02 4.66 -1.96 5.32 -4 6 C-3.67 4.35 -3.34 2.7 -3 1 C-2.01 1.33 -1.02 1.66 0 2 C0 1.34 0 0.68 0 0 Z " fill="#DDEAF4" transform="translate(203,28)"/>
<path d="M0 0 C0.33 0.99 0.66 1.98 1 3 C0.34 3.66 -0.32 4.32 -1 5 C-1.99 5 -2.98 5 -4 5 C-4.66 4.34 -5.32 3.68 -6 3 C-4.02 2.01 -2.04 1.02 0 0 Z " fill="#138AF5" transform="translate(78,95)"/>
<path d="M0 0 C0.33 0.99 0.66 1.98 1 3 C0.01 4.485 0.01 4.485 -1 6 C-1.99 5.34 -2.98 4.68 -4 4 C-4 3.34 -4 2.68 -4 2 C-2.68 1.34 -1.36 0.68 0 0 Z " fill="#168AF5" transform="translate(23,123)"/>
<path d="M0 0 C1.32 0.66 2.64 1.32 4 2 C2.35 3.32 0.7 4.64 -1 6 C-1.625 4.125 -1.625 4.125 -2 2 C-1.34 1.34 -0.68 0.68 0 0 Z " fill="#1089FB" transform="translate(149,83)"/>
</svg>
