<?xml version="1.0" encoding="UTF-8"?>
<svg version="1.1" xmlns="http://www.w3.org/2000/svg" width="600" height="600">
<path d="M0 0 C198 0 396 0 600 0 C600 198 600 396 600 600 C402 600 204 600 0 600 C0 402 0 204 0 0 Z " fill="#F3F3F7" transform="translate(0,0)"/>
<path d="M0 0 C198 0 396 0 600 0 C600 198 600 396 600 600 C402 600 204 600 0 600 C0 402 0 204 0 0 Z M116.11328125 34.234375 C113.91033298 35.03248565 111.70519699 35.60083212 109.4375 36.1875 C91.88305456 41.42926287 77.00936343 52.46543086 64 65 C63.03126953 65.87398437 63.03126953 65.87398437 62.04296875 66.765625 C43.97931808 83.51786309 30.98133448 112.21287151 29.8723495 136.83403659 C29.871103 137.82142487 29.86985651 138.80881315 29.86857224 139.82612228 C29.86473109 140.97300514 29.86088995 142.119888 29.8569324 143.30152488 C29.85779888 144.55189166 29.85866537 145.80225845 29.85955811 147.09051514 C29.85697248 148.43992518 29.85395877 149.78933446 29.8505547 151.13874269 C29.84250394 154.84155719 29.8406962 158.54435228 29.83995724 162.2471745 C29.83810321 166.24336594 29.83055388 170.23954739 29.82382202 174.23573303 C29.81024952 182.97390957 29.80421502 191.71208151 29.79981136 200.45026684 C29.79704582 205.91226231 29.79280777 211.37425602 29.78830719 216.83625031 C29.77611349 231.97382877 29.76581597 247.11140583 29.7624321 262.24898911 C29.76221253 263.21759436 29.76199297 264.18619962 29.76176675 265.18415655 C29.76154847 266.15502757 29.76133019 267.12589859 29.7611053 268.12618995 C29.76066184 270.09340398 29.76021528 272.060618 29.75976562 274.02783203 C29.7595442 275.00362969 29.75932277 275.97942736 29.75909463 276.98479465 C29.75515212 292.77323181 29.7377153 308.56162266 29.7144061 324.35004196 C29.6906403 340.57955876 29.67822779 356.80905238 29.67706418 373.03858685 C29.67615009 382.14268086 29.67046561 391.24671461 29.65224457 400.35079193 C29.63677252 408.10852198 29.63176453 415.86617314 29.63998267 423.6239157 C29.64386486 427.57551675 29.64308021 431.52695932 29.62892532 435.47854042 C29.49680414 474.69794887 37.14335774 507.86546185 65.25 536.6875 C77.90874265 549.21560547 93.15181179 558.58049274 110 564.3125 C110.67450195 564.54291992 111.34900391 564.77333984 112.04394531 565.01074219 C123.98974842 568.82824191 135.67465523 570.44927428 148.17953491 570.38095093 C149.53742809 570.38441894 150.89531843 570.38919108 152.25320303 570.39513266 C155.93768891 570.40751598 159.62193805 570.40153098 163.30642414 570.39217401 C167.29835834 570.38533102 171.2902544 570.3958906 175.28218079 570.40411377 C183.08442623 570.41739852 190.88658472 570.41459673 198.68883346 570.40587585 C205.03559085 570.39907792 211.38232402 570.39819166 217.72908401 570.4014473 C219.08831383 570.40213684 219.08831383 570.40213684 220.47500283 570.40284032 C222.3163354 570.40379958 224.15766795 570.40477223 225.9990005 570.4057581 C243.23403679 570.41429685 260.46902507 570.40450221 277.70405348 570.388357 C292.46190604 570.37495975 307.21968778 570.37727997 321.97753906 570.39111328 C339.151274 570.40720379 356.32496694 570.41346824 373.49870837 570.40427649 C375.33356706 570.40332093 377.16842575 570.40237782 379.00328445 570.4014473 C379.90585981 570.40098447 380.80843517 570.40052164 381.73836129 570.40004479 C388.06945431 570.39746496 394.40052048 570.40180417 400.73160934 570.40888596 C408.45878539 570.41734004 416.18587013 570.41493948 423.91303585 570.39904372 C427.848365 570.39121251 431.78354247 570.38798022 435.71887016 570.39799118 C474.01309075 570.48722697 506.70121676 563.12269648 535.6328125 536.36328125 C552.02400079 519.99914113 562.58881976 499.35357451 568 477 C568.17535215 476.32577594 568.35070431 475.65155188 568.53137016 474.95689678 C570.80462361 464.73148681 570.26371956 454.23328805 570.22705078 443.8215332 C570.22648603 441.57363388 570.22680447 439.32573419 570.22793579 437.07783508 C570.22850781 431.00013528 570.21677794 424.922515 570.20278788 418.84483361 C570.19025532 412.48405886 570.18910803 406.12328214 570.18673706 399.76249695 C570.18123423 389.09433461 570.1687558 378.42620354 570.15087891 367.75805664 C570.13249299 356.77465967 570.11834979 345.7912706 570.10986328 334.80786133 C570.10933783 334.12971629 570.10881239 333.45157126 570.10827102 332.75287638 C570.10566076 329.35048516 570.10313338 325.94809389 570.10064721 322.54570258 C570.07994725 294.36378154 570.0446006 266.18189258 570 238 C569.2240662 237.9166081 568.4481324 237.83321621 567.64868546 237.74729729 C564.09913368 237.36417762 560.5500586 236.97680142 557.00097656 236.58935547 C555.7803653 236.45824875 554.55975403 236.32714203 553.30215454 236.19206238 C544.97768811 235.2792503 536.89737462 234.08898814 528.75 232.125 C527.63359131 231.865979 526.51718262 231.60695801 525.36694336 231.34008789 C517.04866067 229.36386778 508.9854938 227.06127379 501 224 C500.09121094 223.67 499.18242187 223.34 498.24609375 223 C481.57580467 216.55004462 465.43943384 207.51530535 451 197 C450.44699219 196.60103516 449.89398438 196.20207031 449.32421875 195.79101562 C419.69276006 174.24401814 397.66461834 145.73401547 381.89794922 112.85205078 C381.08218442 111.16950816 380.23236879 109.50358158 379.37890625 107.83984375 C374.84662962 98.71642975 372.32215778 89.17822643 369.67285156 79.38818359 C368.80945933 76.32370506 367.78064623 73.32427732 366.75 70.3125 C363.47403352 59.79134624 363.14856071 48.61764362 362.4753418 37.68481445 C362.4294265 36.94444191 362.3835112 36.20406937 362.33620453 35.44126129 C362.22377504 33.62752989 362.11183779 31.81376798 362 30 C333.57464291 29.95429904 305.14929048 29.91894163 276.7239038 29.89786934 C273.36215976 29.89536816 270.0004158 29.89277949 266.63867188 29.89013672 C265.9694559 29.8896121 265.30023992 29.88908748 264.61074467 29.88854696 C253.79845919 29.87986259 242.98619514 29.86410355 232.17392235 29.84569441 C221.06583508 29.82694042 209.95775651 29.81602123 198.84965384 29.81182301 C192.61618235 29.8092219 186.38275935 29.80313337 180.14930344 29.78853989 C174.27412845 29.77489751 168.39902164 29.77079076 162.52383232 29.77378464 C160.37533255 29.77323744 158.22683035 29.76929988 156.07834435 29.76158905 C135.76561904 29.57749564 135.76561904 29.57749564 116.11328125 34.234375 Z " fill="#FEFEFE" transform="translate(0,0)"/>
<path d="M0 0 C1.55361229 0.00061441 3.10722513 0.00034273 4.66083717 -0.00073051 C8.77685485 -0.00117731 12.89275343 0.0103137 17.00874329 0.02449036 C20.88791225 0.03598114 24.76705399 0.03642203 28.64624023 0.0378418 C39.94988523 0.04828696 51.25350862 0.07620949 62.55712891 0.10205078 C87.84337891 0.14330078 113.12962891 0.18455078 139.18212891 0.22705078 C139.18212891 69.85705078 139.18212891 139.48705078 139.18212891 211.22705078 C129.18212891 208.22705078 129.18212891 208.22705078 125.74072266 206.70361328 C121.01627082 204.74330286 116.23085233 203.69289237 111.24462891 202.60205078 C110.29394531 202.38548828 109.34326172 202.16892578 108.36376953 201.94580078 C80.32257465 195.68436237 53.17338954 200.67981825 26.18212891 209.22705078 C26.18212891 209.88705078 26.18212891 210.54705078 26.18212891 211.22705078 C25.64587891 211.39978516 25.10962891 211.57251953 24.55712891 211.75048828 C9.82379754 217.03316301 -2.42522648 226.74978039 -13.81787109 237.22705078 C-14.50236328 237.84064453 -15.18685547 238.45423828 -15.89208984 239.08642578 C-24.97748257 247.64236672 -31.89234772 258.33743002 -37.81787109 269.22705078 C-43.52555574 266.50386246 -48.71512289 263.45566979 -53.93115234 259.89111328 C-55.52137113 258.81787174 -57.1120498 257.74531136 -58.703125 256.67333984 C-59.53539612 256.11118774 -60.36766724 255.54903564 -61.22515869 254.96984863 C-65.68763677 251.97021119 -70.18116738 249.01789083 -74.67333984 246.06298828 C-76.55159788 244.82601341 -78.42985307 243.58903421 -80.30810547 242.35205078 C-82.20715991 241.10199897 -84.1062486 239.85199919 -86.00537109 238.60205078 C-88.86878502 236.71729665 -91.73208585 234.83237178 -94.595047 232.94692993 C-96.35364065 231.78878979 -98.11247385 230.63101326 -99.87162781 229.47372437 C-101.56192768 228.36058616 -103.23744949 227.22474329 -104.89894104 226.06904602 C-107.19730302 224.6186612 -109.29320913 223.53121544 -111.75132751 222.4283905 C-116.83396131 219.95581211 -121.67484636 217.46903656 -123.64666939 211.87631226 C-125.01306007 204.59854068 -124.63815513 197.22180407 -124.42333984 189.85595703 C-124.40547896 187.44957626 -124.39372741 185.04314317 -124.38777161 182.63670349 C-124.36029374 177.59580991 -124.2844247 172.5589285 -124.16918945 167.51928711 C-124.02289401 161.11114179 -123.95724815 154.70571499 -123.92357922 148.2960825 C-123.88818675 142.12818755 -123.81427763 135.96093219 -123.73583984 129.79345703 C-123.72377188 128.64121706 -123.71170391 127.48897709 -123.69927025 126.30182076 C-123.24139842 90.40554918 -113.13882395 60.17905542 -87.81787109 34.22705078 C-87.23779297 33.58509766 -86.65771484 32.94314453 -86.06005859 32.28173828 C-74.48574228 19.77682367 -58.32991662 11.24136623 -42.24365234 6.28564453 C-39.53585977 5.44891501 -36.90815967 4.5288096 -34.25537109 3.53955078 C-23.21850183 -0.06130839 -11.48839749 -0.06038477 0 0 Z " fill="#F1F0F5" transform="translate(152.81787109375,29.77294921875)"/>
<path d="M0 0 C0.76166977 0.00222061 1.52333954 0.00444122 2.30809021 0.00672913 C3.16890701 0.00680466 4.02972382 0.00688019 4.91662598 0.00695801 C5.8520372 0.01211929 6.78744843 0.01728058 7.75120544 0.02259827 C8.70422043 0.02401321 9.65723541 0.02542816 10.63912964 0.02688599 C13.69605085 0.032503 16.75289996 0.04505836 19.80979919 0.05775452 C21.87685543 0.06276733 23.94391281 0.06733061 26.01097107 0.07142639 C31.08977507 0.08247795 36.16852489 0.09975397 41.24729919 0.12025452 C41.30788513 1.00503479 41.36847107 1.88981506 41.43089294 2.80140686 C41.51468201 3.96623596 41.59847107 5.13106506 41.68479919 6.33119202 C41.76601013 7.48409729 41.84722107 8.63700256 41.93089294 9.82484436 C42.26538287 13.30859822 42.9437641 16.53761845 43.79417419 19.92103577 C44.28153831 22.2864323 44.39260291 24.52100085 44.49729919 26.93275452 C45.13260447 35.15707012 48.04413794 42.91880971 50.51585388 50.73744202 C51.15356998 52.814915 51.73949509 54.89243547 52.28636169 56.99525452 C54.43026653 65.19802084 57.52663289 72.62708884 61.28977966 80.18617249 C62.25497181 82.13575234 63.19249017 84.09683698 64.12620544 86.06166077 C75.19572637 109.11304129 90.23981061 129.02744617 108.24729919 147.12025452 C108.75583435 147.63281799 109.26436951 148.14538147 109.78831482 148.67347717 C136.47528225 175.20696745 172.94201327 192.94698898 209.30979919 201.37025452 C210.29335388 201.60446106 211.27690857 201.8386676 212.29026794 202.07997131 C224.88353811 204.8308039 237.28198072 205.67966357 250.24729919 207.12025452 C250.24729919 273.78025452 250.24729919 340.44025452 250.24729919 409.12025452 C246.61555103 407.66755525 244.14867415 406.55131308 241.02073669 404.44447327 C240.17551453 403.8784137 239.33029236 403.31235413 238.4594574 402.72914124 C237.52319519 402.09508362 236.58693298 401.461026 235.62229919 400.80775452 C234.61320496 400.12986877 233.60411072 399.45198303 232.56443787 398.7535553 C229.51856993 396.7067727 226.4772884 394.65325256 223.43656921 392.59883118 C219.23849402 389.76355917 215.03750362 386.93260779 210.83714294 384.10072327 C205.2795997 380.35367458 199.72260604 376.60582626 194.16868591 372.85340881 C184.48654157 366.31368558 174.78514093 359.8044634 165.05874634 353.33073425 C156.52047769 347.64412393 148.01859452 341.9042658 139.51951599 336.15931702 C125.41479909 326.62695831 111.28959782 317.12677452 97.11631775 307.69664001 C89.82289537 302.84347192 82.5342561 297.98312362 75.24729919 293.12025452 C73.83934082 292.18073944 73.83934082 292.18073944 72.40293884 291.22224426 C66.43763424 287.24007368 60.47731738 283.25057847 54.52244568 279.25282288 C52.60566507 277.96727771 50.68755506 276.68371226 48.76805115 275.40223694 C46.098646 273.61958222 43.43415615 271.82980444 40.77073669 270.03822327 C39.97988678 269.51230087 39.18903687 268.98637848 38.3742218 268.44451904 C32.37116273 264.38908939 27.73655694 260.06602078 23.62229919 254.05775452 C19.87771306 248.83079001 15.77590562 244.07227756 11.44651794 239.33509827 C10.75162703 238.57399451 10.75162703 238.57399451 10.04269791 237.79751492 C8.20247165 235.98047099 8.20247165 235.98047099 5.57308578 234.38428593 C1.5524739 231.5133477 -1.93708266 228.87401838 -3.38625813 223.98118091 C-4.40810733 217.48205441 -4.14097757 210.90279571 -4.01734924 204.34657288 C-4.01588215 202.12999791 -4.01925427 199.91341526 -4.02708435 197.69685364 C-4.03449318 191.69866435 -3.97406692 185.70287749 -3.90096569 179.70520091 C-3.83579314 173.42907302 -3.83238542 167.15290974 -3.82209778 160.87649536 C-3.79639153 150.34741489 -3.73161267 139.81908182 -3.63746643 129.29042053 C-3.54064922 118.45254958 -3.46993317 107.61499286 -3.43238831 96.77674866 C-3.43006375 96.10786729 -3.4277392 95.43898592 -3.4253442 94.74983542 C-3.41609657 92.06133401 -3.40700826 89.37283213 -3.39813684 86.68432945 C-3.3298444 66.11966854 -3.2377792 45.55483992 -3.06703568 24.99075317 C-3.04966078 22.83196336 -3.03394035 20.67315955 -3.01994705 18.51434517 C-3.00043626 15.58119497 -2.97466633 12.64817064 -2.94697571 9.71508789 C-2.94238523 8.84935856 -2.93779476 7.98362924 -2.93306518 7.09166569 C-2.85544933 0.19591517 -2.85544933 0.19591517 0 0 Z " fill="#53DD69" transform="translate(319.75270080566406,30.879745483398438)"/>
<path d="M0 0 C2.19185036 0.01072286 4.38288142 0.00005071 6.57470703 -0.01269531 C14.15659629 -0.02053239 21.31626714 0.37014638 28.69580078 2.26074219 C29.91525391 2.52113281 31.13470703 2.78152344 32.39111328 3.04980469 C61.09729515 10.04652783 86.17606119 29.7369063 101.75439453 54.53808594 C117.35554479 80.35890732 122.1748381 112.35857697 115.59814453 141.87792969 C114.27201696 146.84947287 112.73445874 151.53504575 110.69580078 156.26074219 C110.4317041 156.88561523 110.16760742 157.51048828 109.89550781 158.15429688 C96.60588937 189.25890964 72.85328963 210.93931347 41.68408203 223.47167969 C14.48703936 233.34127498 -17.51179434 232.03059589 -43.74169922 220.07324219 C-74.35353049 205.54952409 -95.01902941 181.26946353 -106.61669922 149.68652344 C-114.68689485 125.09022866 -114.14652759 93.91369855 -103.30419922 70.26074219 C-102.77181641 69.06835938 -102.23943359 67.87597656 -101.69091797 66.64746094 C-88.84768701 38.88574179 -65.71892925 17.48500706 -37.24169922 6.32324219 C-32.97005251 4.790907 -28.71458868 3.34253583 -24.30419922 2.26074219 C-23.66699951 2.0930835 -23.0297998 1.9254248 -22.37329102 1.75268555 C-14.9419378 0.0077925 -7.58548766 -0.04411154 0 0 Z " fill="#0685FE" transform="translate(230.30419921875,249.7392578125)"/>
<path d="M0 0 C3.33575469 1.29796713 6.20665986 2.64729176 9.16577148 4.66699219 C9.95601715 5.20271851 10.74626282 5.73844482 11.56045532 6.29040527 C12.405466 6.87004028 13.25047668 7.44967529 14.12109375 8.046875 C15.45386856 8.952099 15.45386856 8.952099 16.81356812 9.87561035 C18.71030035 11.16408467 20.60570963 12.45450827 22.49990845 13.7467041 C27.39072998 17.08200873 32.29240994 20.40123884 37.1953125 23.71875 C38.62472923 24.68618134 38.62472923 24.68618134 40.08302307 25.67315674 C49.23277163 31.85402292 58.49830863 37.82892383 67.87060547 43.66699219 C71.39225898 45.87155859 74.88354538 48.1230229 78.375 50.375 C80.02628906 51.43847656 80.02628906 51.43847656 81.7109375 52.5234375 C82.46632813 53.01070313 83.22171875 53.49796875 84 54 C83.22262549 58.07344245 81.39613426 61.69210968 79.6875 65.4375 C76.53903814 72.4823342 74.04044597 79.54928062 72 87 C71.78601563 87.73605469 71.57203125 88.47210938 71.3515625 89.23046875 C62.50939999 121.33136308 69.59937942 159.33272918 85.59375 187.796875 C90.08201397 195.3370895 95.25164783 202.37235878 101 209 C101.74636719 209.89074219 102.49273437 210.78148437 103.26171875 211.69921875 C107.89954302 217.05400136 111.62895177 220.37199995 117.75268555 223.97021484 C120.9943915 226.2362074 123.45079983 228.34941749 124.72433853 232.17694855 C125.85241941 238.73012875 125.49067903 245.35968301 125.26953125 251.9765625 C125.24525494 254.11455676 125.22676393 256.25262383 125.21379089 258.39071655 C125.16438105 263.99207667 125.03690342 269.58898585 124.89263916 275.18859863 C124.75914511 280.91288032 124.7001728 286.63788844 124.63476562 292.36328125 C124.49574882 303.57746625 124.27417195 314.78836169 124 326 C120.86725488 326.05353299 117.73463047 326.08514158 114.6015625 326.11328125 C113.72830322 326.12846802 112.85504395 326.14365479 111.95532227 326.15930176 C103.58172987 326.21543541 95.89771876 324.68578344 87.84765625 322.49951172 C86.31273711 322.08454811 84.76676144 321.7107432 83.21875 321.34765625 C64.51009927 316.57695031 47.59409729 304.24710081 34 291 C33.36835937 290.44183594 32.73671875 289.88367188 32.0859375 289.30859375 C13.09219866 272.07020044 1.1466073 241.98291843 -0.11324739 216.73003745 C-0.29324124 210.29471385 -0.25075893 203.85777921 -0.22705078 197.4206543 C-0.22648576 195.2611288 -0.22680501 193.10160291 -0.22793579 190.94207764 C-0.22850674 185.11448677 -0.21679435 179.28697918 -0.20278788 173.45940757 C-0.19023734 167.35622826 -0.18910662 161.25304679 -0.18673706 155.14985657 C-0.18053496 143.60820746 -0.16414139 132.0665965 -0.14403808 120.52496415 C-0.12163947 107.37860616 -0.1106757 94.2322463 -0.10064721 81.08587396 C-0.07977399 54.05722821 -0.04462281 27.02861625 0 0 Z " fill="#EF82CA" transform="translate(30,244)"/>
<path d="M0 0 C37.62 0 75.24 0 114 0 C114 69.63 114 139.26 114 211 C104 208 104 208 100.55859375 206.4765625 C95.83414191 204.51625208 91.04872343 203.46584159 86.0625 202.375 C85.11181641 202.1584375 84.16113281 201.941875 83.18164062 201.71875 C54.76397469 195.37324775 27.03115022 200.17049083 0 210 C0 140.7 0 71.4 0 0 Z " fill="#0786FB" transform="translate(178,30)"/>
<path d="M0 0 C22.77 0 45.54 0 69 0 C70.32 7.92 71.64 15.84 73 24 C76.94532726 36.74644192 81.64149081 48.33397487 88 60 C88.47953125 60.8971875 88.9590625 61.794375 89.453125 62.71875 C104.90822396 90.0760516 130.90229197 109.31516033 160 120 C160.78632812 120.30679688 161.57265625 120.61359375 162.3828125 120.9296875 C173.61513937 125.07240882 186.30331459 126.20050994 198 128 C198 150.77 198 173.54 198 197 C189.01514233 197 180.94388595 196.71864461 172.1875 195.3125 C171.053125 195.13315918 169.91875 194.95381836 168.75 194.76904297 C160.50907636 193.39829641 152.791388 191.50152393 144.93359375 188.67529297 C142.83409834 187.9420601 140.71964317 187.28150387 138.59375 186.62890625 C128.88850945 183.61375628 119.91037512 179.88941417 110.96777344 175.06201172 C108.98967163 173.99442575 106.99928325 172.95254394 105.0078125 171.91015625 C94.9336618 166.53866671 85.90610071 160.12348608 77 153 C76.42121094 152.53835449 75.84242188 152.07670898 75.24609375 151.60107422 C61.85495228 140.82369093 50.18098014 128.85151221 40 115 C39.21882813 113.94039063 38.43765625 112.88078125 37.6328125 111.7890625 C27.43711128 97.50096909 19.85885268 82.11731359 13 66 C12.66258789 65.24025879 12.32517578 64.48051758 11.97753906 63.69775391 C9.11964047 57.01049167 7.41290215 50.17172045 5.81738281 43.08740234 C5.37681384 41.13304617 4.92280607 39.18173556 4.46875 37.23046875 C1.53345349 24.43725165 0 13.34343375 0 0 Z " fill="#D2D1D6" transform="translate(372,30)"/>
<path d="M0 0 C7.01283612 3.80843071 13.56905684 8.30568325 20.1875 12.75 C21.35467178 13.531468 22.52198864 14.31271936 23.68945312 15.09375 C26.01746175 16.65154966 28.34470515 18.21048272 30.67138672 19.77026367 C34.62162894 22.4176222 38.5789211 25.05435825 42.53637695 27.69091797 C46.04392542 30.02840908 49.54886633 32.36979862 53.05387878 34.71109009 C56.61905382 37.09227725 60.18498885 39.47232502 63.75097656 41.85229492 C65.56961764 43.06639128 67.3879815 44.28090301 69.20605469 45.49584961 C79.56314692 52.41654354 89.94649639 59.29157707 100.39927673 66.06698608 C109.5259313 71.98333978 118.61853762 77.95106284 127.70336914 83.93139648 C129.62481258 85.19556877 131.54702578 86.45857179 133.4699707 87.72045898 C154.07432425 101.24212022 154.07432425 101.24212022 163 108 C160.13733292 111.07917132 157.05218911 112.48577081 153.1875 114 C152.5267749 114.26127686 151.8660498 114.52255371 151.18530273 114.79174805 C137.3051627 120.08327282 123.29481369 121.15376666 108.59765625 121.11352539 C107.14821881 121.11324294 105.69878123 121.11340239 104.24934387 121.1139679 C100.33464052 121.11425361 96.4199681 121.10839352 92.50527191 121.10139394 C88.40667378 121.09512267 84.30807485 121.09455362 80.20947266 121.09336853 C72.45717703 121.09026632 64.70489559 121.08206793 56.9526062 121.07201904 C48.1230864 121.06082339 39.2935659 121.05533876 30.46404076 121.05032361 C12.30935248 121.03988435 -5.84532262 121.02230647 -24 121 C-24.32534248 108.43041919 -24.57361042 95.86185007 -24.72537041 83.2889061 C-24.79823644 77.44954791 -24.89693696 71.61308329 -25.05615234 65.77539062 C-25.20903643 60.13409594 -25.29212985 54.49557091 -25.3282814 48.85236359 C-25.35401787 46.70711925 -25.40428281 44.56201547 -25.48022079 42.41796112 C-26.08126338 24.73368623 -26.08126338 24.73368623 -20.99664307 19.15246582 C-18.12962578 16.51449393 -15.03375069 14.37243362 -11.7657814 12.26563263 C-7.16487392 8.96790924 -3.65335465 4.27627687 0 0 Z " fill="#FECC00" transform="translate(340,449)"/>
<path d="M0 0 C6.61059057 3.42771363 9.03515458 7.53026827 11.25 14.359375 C11.4975 15.14828125 11.745 15.9371875 12 16.75 C14.55629017 24.73840678 17.41504922 32.54383141 20.49902344 40.34228516 C23.52693264 48.01670162 26.33076027 55.71736111 28.859375 63.5703125 C30.85733033 69.57786311 33.17134835 75.45628702 35.49902344 81.34228516 C38.52693264 89.01670162 41.33076027 96.71736111 43.859375 104.5703125 C46.1754578 111.53442448 48.89777844 118.35091328 51.5625 125.1875 C51.86607422 125.96802734 52.16964844 126.74855469 52.48242188 127.55273438 C52.77826172 128.31263672 53.07410156 129.07253906 53.37890625 129.85546875 C53.65935791 130.57782715 53.93980957 131.30018555 54.22875977 132.04443359 C54.85782366 133.6394959 55.51819202 135.22218315 56.1875 136.80078125 C57.46727626 140.26479103 57.70222492 143.3718379 57 147 C54.9375 150 54.9375 150 52 152 C47.84447701 152.50501148 45.80924503 152.60662863 42.41015625 150.05859375 C41.63542969 149.19363281 40.86070312 148.32867187 40.0625 147.4375 C37.26402183 144.36805065 34.46144998 141.48364656 31.30859375 138.78515625 C25.35303839 133.65293667 19.93531952 127.97979406 14.421875 122.3828125 C9.44977776 117.36495976 4.37157759 112.58617721 -1 108 C-1.33 107.67 -1.66 107.34 -2 107 C-4.36511884 106.5820431 -4.36511884 106.5820431 -7 107 C-9.24989338 108.72093376 -9.24989338 108.72093376 -11.1875 111 C-12.42570735 112.36368534 -13.69033404 113.70478951 -15 115 C-15.66 115 -16.32 115 -17 115 C-17.495 116.485 -17.495 116.485 -18 118 C-19.51806641 119.49243164 -19.51806641 119.49243164 -21.4765625 121.09765625 C-27.26075785 126.0045605 -32.4702812 131.45421094 -37.7578125 136.88476562 C-52.38333965 151.7134251 -52.38333965 151.7134251 -58.11865234 152.34155273 C-61 152 -61 152 -63.875 149.9375 C-66.55753509 146.22928973 -66.33001729 144.51180778 -66 140 C-65.046875 136.640625 -65.046875 136.640625 -63.75 133.25 C-63.33234375 132.14140625 -62.9146875 131.0328125 -62.484375 129.890625 C-62.25290771 129.28774658 -62.02144043 128.68486816 -61.78295898 128.0637207 C-60.13800545 123.72795762 -58.57888986 119.3601481 -57 115 C-55.64639567 111.27062909 -54.29187277 107.5415919 -52.9375 103.8125 C-52.59912109 102.87986328 -52.26074219 101.94722656 -51.91210938 100.98632812 C-50.41454055 96.86439304 -48.91102261 92.74548375 -47.3671875 88.640625 C-46.28076194 85.74762895 -45.22409264 82.84847933 -44.1875 79.9375 C-42.60508598 75.55728173 -40.88870075 71.24774516 -39.125 66.9375 C-36.50072964 60.49306806 -34.23836952 53.95949493 -32.09228516 47.34155273 C-29.49237281 39.32985643 -26.43541293 31.54283486 -23.27197266 23.73681641 C-21.69437027 19.81568131 -20.24441672 15.87499588 -18.875 11.875 C-17.22120629 7.27581336 -15.50481647 3.48492285 -11.1484375 0.90234375 C-7.47071331 -0.64230041 -3.91280641 -0.55703147 0 0 Z " fill="#FCFDFE" transform="translate(238,281)"/>
<path d="M0 0 C1.26225906 0.00299606 2.52451813 0.00599213 3.82502747 0.00907898 C4.78793198 0.01293106 5.75083649 0.01678314 6.74291992 0.02075195 C6.85974819 15.58037067 6.94790543 31.13990978 7.00198078 46.69986248 C7.02775695 53.92473199 7.06289567 61.1493289 7.12011719 68.37402344 C7.16997085 74.6714691 7.20221523 80.96871734 7.2133624 87.26635486 C7.21987813 90.60071506 7.23780331 93.93437912 7.27157021 97.26859093 C7.30778339 100.99190352 7.31286818 104.71404009 7.31054688 108.4375 C7.32852325 109.54161224 7.34649963 110.64572449 7.36502075 111.78329468 C7.31457582 119.24415599 7.31457582 119.24415599 4.40299988 123.19953918 C0.70116653 125.73398412 -0.81682672 125.84965899 -5.25708008 125.02075195 C-9.1067258 123.13823716 -12.62485395 120.82108171 -16.19458008 118.45825195 C-18.34926097 117.07111833 -20.50421653 115.6844113 -22.65942383 114.2980957 C-23.75625488 113.58508301 -24.85308594 112.87207031 -25.9831543 112.13745117 C-31.03629849 108.87042953 -36.14716003 105.69791741 -41.25708008 102.52075195 C-43.25088098 101.27515639 -45.24436948 100.02906062 -47.23754883 98.7824707 C-51.30188563 96.24217745 -55.36708269 93.70326807 -59.43286133 91.1652832 C-69.73396746 84.73351629 -80.02744807 78.29074746 -90.28369141 71.78759766 C-93.91595888 69.48676703 -97.55622306 67.21060817 -101.25708008 65.02075195 C-96.87865517 52.88366737 -88.12175392 43.10329796 -79.25708008 34.02075195 C-78.67571289 33.37750977 -78.0943457 32.73426758 -77.49536133 32.0715332 C-65.92419182 19.56767497 -49.76583465 11.03405355 -33.68286133 6.0793457 C-30.97506875 5.24261618 -28.34736865 4.32251077 -25.69458008 3.33325195 C-17.32811343 0.57576482 -8.73962778 -0.026897 0 0 Z " fill="#73E878" transform="translate(144.257080078125,29.979248046875)"/>
<path d="M0 0 C24.91071383 -1.58442703 53.69224113 8.85721425 72.6640625 24.9296875 C73.43492187 25.61289062 74.20578125 26.29609375 75 27 C76.28003906 28.11761719 76.28003906 28.11761719 77.5859375 29.2578125 C80.08771376 31.47410078 82.54687981 33.73013497 85 36 C85.60457031 36.52722656 86.20914063 37.05445313 86.83203125 37.59765625 C105.46324544 54.65808891 116.88281402 84.55488643 118.1796875 109.44921875 C118.18615721 111.97564091 118.14425632 114.47818583 118 117 C85.53943063 115.41255226 56.92501441 101.92501441 33.9453125 78.9453125 C32.21064284 77.01878997 30.59518951 75.04348633 29 73 C28.29488281 72.11957031 27.58976562 71.23914063 26.86328125 70.33203125 C11.15757394 50.14659758 0.58881738 25.85443598 0 0 Z " fill="#74E978" transform="translate(452,30)"/>
</svg>
